{
	"asset":{
		"version":"2.0",
		"generator":"Created using the official Cinema 4D glTF Exporter 1.000x284978"
	},
	"scenes":[{
		"nodes":[0]
	}],
	"meshes":[{
		"name":"star-g",
		"primitives":[{
			"attributes":{
				"POSITION":1,
				"NORMAL":2,
				"TEXCOORD_0":3
			},
			"indices":0,
			"material":0
		}]
	}],
	"nodes":[{
		"name":"star-g",
		"mesh":0
	}],
	"accessors":[{
		"max":[1408],
		"bufferView":0,
		"type":"SCALAR",
		"count":5016,
		"componentType":5123,
		"byteOffset":0,
		"min":[0]
	},
	{
		"max":[0.7830250263214111,
		0.7898240089416504,
		0.019999999552965165],
		"bufferView":1,
		"type":"VEC3",
		"count":1409,
		"componentType":5126,
		"byteOffset":0,
		"min":[-0.7899739742279053,
		-0.7898240089416504,
		-0.3199999928474426]
	},
	{
		"max":[0.9998523592948914,
		0.9995602369308472,
		1.0],
		"bufferView":1,
		"type":"VEC3",
		"count":1409,
		"componentType":5126,
		"byteOffset":12,
		"min":[-0.9998259544372559,
		-0.9995648860931397,
		-1.0]
	},
	{
		"max":[1.0,
		1.0],
		"bufferView":1,
		"type":"VEC2",
		"count":1409,
		"componentType":5126,
		"byteOffset":24,
		"min":[0.0,
		0.0]
	}],
	"bufferViews":[{
		"buffer":0,
		"byteOffset":0,
		"byteLength":10032,
		"target":34963
	},
	{
		"buffer":0,
		"byteOffset":10032,
		"byteLength":45088,
		"target":34962,
		"byteStride":32
	}],
	"buffers":[{
		"uri":"data:application/octet-stream;base64,",
		"byteLength":55120
	}],
	"materials":[{
		"pbrMetallicRoughness":{
			"baseColorFactor":[0.08999999999999997,
			1.0,
			0.3175,
			1.0],
			"metallicFactor":1.0,
			"roughnessFactor":0.5
		},
		"emissiveFactor":[0.0,
		0.0,
		0.0],
		"alphaMode":"OPAQUE",
		"doubleSided":false,
		"name":"default_1"
	}]
}